%
M48
M72
T01C0.1250
T02C0.1260
T03C0.2362
%
T01
X2150Y1330
X2150Y15970
X29630Y15970
X29630Y1330
T02
X15914Y8642
T03
X14115Y5642
X17752Y5642
X21394Y5642
X25012Y5642
X28634Y5642
X28634Y11642
X25012Y11642
X21370Y11646
X17752Y11642
X14126Y11646
X10473Y11642
X6835Y11642
X3197Y11642
X3197Y5642
X6835Y5642
X10473Y5626
M30
