G75*
%MOIN*%
%OFA0B0*%
%FSLAX24Y24*%
%IPPOS*%
%LPD*%
%AMOC8*
5,1,8,0,0,1.08239X$1,22.5*
%
%ADD10C,0.1340*%
%ADD11C,0.2442*%
%ADD12C,0.1330*%
%ADD13C,0.0150*%
%ADD14C,0.0120*%
%ADD15C,0.0320*%
D10*
X015914Y008642D03*
D11*
X014115Y005642D03*
X017752Y005642D03*
X021394Y005642D03*
X025012Y005642D03*
X028634Y005642D03*
X028634Y011642D03*
X025012Y011642D03*
X021370Y011646D03*
X017752Y011642D03*
X014126Y011646D03*
X010473Y011642D03*
X006835Y011642D03*
X003197Y011642D03*
X003197Y005642D03*
X006835Y005642D03*
X010473Y005626D03*
D12*
X002150Y001330D03*
X002150Y015970D03*
X029630Y015970D03*
X029630Y001330D03*
D13*
X029502Y002995D02*
X029502Y003605D01*
X029197Y003300D01*
X029604Y003300D01*
X028904Y003503D02*
X028904Y003096D01*
X028802Y002995D01*
X028599Y002995D01*
X028497Y003096D01*
X028497Y003503D01*
X028599Y003605D01*
X028802Y003605D01*
X028904Y003503D01*
X028204Y003503D02*
X028103Y003605D01*
X027899Y003605D01*
X027797Y003503D01*
X027797Y003402D01*
X027899Y003300D01*
X028103Y003300D01*
X028204Y003198D01*
X028204Y003096D01*
X028103Y002995D01*
X027899Y002995D01*
X027797Y003096D01*
X025943Y003096D02*
X025841Y002995D01*
X025637Y002995D01*
X025536Y003096D01*
X025243Y003096D02*
X025243Y003503D01*
X025141Y003605D01*
X024937Y003605D01*
X024836Y003503D01*
X024836Y003096D01*
X024937Y002995D01*
X025141Y002995D01*
X025243Y003096D01*
X025739Y003300D02*
X025841Y003300D01*
X025943Y003198D01*
X025943Y003096D01*
X025841Y003300D02*
X025943Y003402D01*
X025943Y003503D01*
X025841Y003605D01*
X025637Y003605D01*
X025536Y003503D01*
X024543Y003503D02*
X024441Y003605D01*
X024238Y003605D01*
X024136Y003503D01*
X024136Y003402D01*
X024238Y003300D01*
X024441Y003300D01*
X024543Y003198D01*
X024543Y003096D01*
X024441Y002995D01*
X024238Y002995D01*
X024136Y003096D01*
X022360Y002995D02*
X021953Y002995D01*
X022360Y003402D01*
X022360Y003503D01*
X022258Y003605D01*
X022055Y003605D01*
X021953Y003503D01*
X021660Y003503D02*
X021558Y003605D01*
X021355Y003605D01*
X021253Y003503D01*
X021253Y003096D01*
X021355Y002995D01*
X021558Y002995D01*
X021660Y003096D01*
X021660Y003503D01*
X020960Y003503D02*
X020859Y003605D01*
X020655Y003605D01*
X020553Y003503D01*
X020553Y003402D01*
X020655Y003300D01*
X020859Y003300D01*
X020960Y003198D01*
X020960Y003096D01*
X020859Y002995D01*
X020655Y002995D01*
X020553Y003096D01*
X018659Y002995D02*
X018252Y002995D01*
X018456Y002995D02*
X018456Y003605D01*
X018252Y003402D01*
X017959Y003503D02*
X017858Y003605D01*
X017654Y003605D01*
X017552Y003503D01*
X017552Y003096D01*
X017654Y002995D01*
X017858Y002995D01*
X017959Y003096D01*
X017959Y003503D01*
X017259Y003503D02*
X017158Y003605D01*
X016954Y003605D01*
X016852Y003503D01*
X016852Y003402D01*
X016954Y003300D01*
X017158Y003300D01*
X017259Y003198D01*
X017259Y003096D01*
X017158Y002995D01*
X016954Y002995D01*
X016852Y003096D01*
X016954Y013703D02*
X017158Y013703D01*
X017259Y013805D01*
X017552Y013805D02*
X017654Y013703D01*
X017858Y013703D01*
X017959Y013805D01*
X017959Y014212D01*
X017858Y014314D01*
X017654Y014314D01*
X017552Y014212D01*
X017552Y013805D01*
X016954Y013703D02*
X016852Y013805D01*
X016852Y014212D01*
X016954Y014314D01*
X017158Y014314D01*
X017259Y014212D01*
X018252Y014110D02*
X018456Y014314D01*
X018456Y013703D01*
X018659Y013703D02*
X018252Y013703D01*
X020475Y013805D02*
X020576Y013703D01*
X020780Y013703D01*
X020882Y013805D01*
X021174Y013805D02*
X021276Y013703D01*
X021480Y013703D01*
X021581Y013805D01*
X021581Y014212D01*
X021480Y014314D01*
X021276Y014314D01*
X021174Y014212D01*
X021174Y013805D01*
X020475Y013805D02*
X020475Y014212D01*
X020576Y014314D01*
X020780Y014314D01*
X020882Y014212D01*
X021874Y014212D02*
X021976Y014314D01*
X022179Y014314D01*
X022281Y014212D01*
X022281Y014110D01*
X021874Y013703D01*
X022281Y013703D01*
X024097Y013805D02*
X024198Y013703D01*
X024402Y013703D01*
X024504Y013805D01*
X024796Y013805D02*
X024898Y013703D01*
X025102Y013703D01*
X025203Y013805D01*
X025203Y014212D01*
X025102Y014314D01*
X024898Y014314D01*
X024796Y014212D01*
X024796Y013805D01*
X024097Y013805D02*
X024097Y014212D01*
X024198Y014314D01*
X024402Y014314D01*
X024504Y014212D01*
X025496Y014212D02*
X025598Y014314D01*
X025801Y014314D01*
X025903Y014212D01*
X025903Y014110D01*
X025801Y014009D01*
X025903Y013907D01*
X025903Y013805D01*
X025801Y013703D01*
X025598Y013703D01*
X025496Y013805D01*
X025700Y014009D02*
X025801Y014009D01*
X027719Y013844D02*
X027820Y013743D01*
X028024Y013743D01*
X028126Y013844D01*
X028418Y013844D02*
X028520Y013743D01*
X028724Y013743D01*
X028825Y013844D01*
X028825Y014251D01*
X028724Y014353D01*
X028520Y014353D01*
X028418Y014251D01*
X028418Y013844D01*
X027719Y013844D02*
X027719Y014251D01*
X027820Y014353D01*
X028024Y014353D01*
X028126Y014251D01*
X029118Y014048D02*
X029525Y014048D01*
X029423Y014353D02*
X029118Y014048D01*
X029423Y013743D02*
X029423Y014353D01*
D14*
X029784Y013142D02*
X028634Y013142D01*
X028634Y012972D01*
X028445Y012959D01*
X028260Y012918D01*
X028082Y012852D01*
X027915Y012761D01*
X027763Y012647D01*
X027629Y012513D01*
X027515Y012361D01*
X027424Y012195D01*
X027358Y012017D01*
X027318Y011831D01*
X027304Y011642D01*
X027134Y011642D01*
X027134Y012792D01*
X027141Y012860D01*
X027161Y012926D01*
X027193Y012987D01*
X027237Y013040D01*
X027290Y013083D01*
X027350Y013115D01*
X027416Y013135D01*
X027484Y013142D01*
X028634Y013142D01*
X028634Y012982D01*
X028824Y012968D01*
X029010Y012927D01*
X029188Y012859D01*
X029355Y012767D01*
X029507Y012653D01*
X029641Y012518D01*
X029755Y012365D01*
X029846Y012197D01*
X029912Y012018D01*
X029951Y011832D01*
X029964Y011642D01*
X030134Y011642D01*
X030134Y012792D01*
X030128Y012860D01*
X030108Y012926D01*
X030075Y012987D01*
X030032Y013040D01*
X029979Y013083D01*
X029918Y013115D01*
X029853Y013135D01*
X029784Y013142D01*
X029954Y013096D02*
X028634Y013096D01*
X027314Y013096D01*
X027188Y012978D02*
X028634Y012978D01*
X028694Y012978D02*
X030080Y012978D01*
X030128Y012859D02*
X029189Y012859D01*
X029391Y012741D02*
X030134Y012741D01*
X030134Y012622D02*
X029538Y012622D01*
X029652Y012504D02*
X030134Y012504D01*
X030134Y012385D02*
X029740Y012385D01*
X029808Y012267D02*
X030134Y012267D01*
X030134Y012148D02*
X029864Y012148D01*
X029907Y012030D02*
X030134Y012030D01*
X030134Y011911D02*
X029935Y011911D01*
X029954Y011793D02*
X030134Y011793D01*
X030134Y011674D02*
X029962Y011674D01*
X029974Y011642D02*
X030134Y011642D01*
X030134Y010492D01*
X030128Y010424D01*
X030108Y010358D01*
X030075Y010298D01*
X030032Y010245D01*
X029979Y010201D01*
X029918Y010169D01*
X029853Y010149D01*
X029784Y010142D01*
X028634Y010142D01*
X028634Y010342D01*
X028446Y010354D01*
X028262Y010393D01*
X028085Y010457D01*
X027919Y010546D01*
X027767Y010658D01*
X027633Y010790D01*
X027519Y010940D01*
X027428Y011105D01*
X027361Y011281D01*
X027319Y011464D01*
X027304Y011652D01*
X027134Y011642D01*
X027134Y010492D01*
X027141Y010424D01*
X027161Y010358D01*
X027193Y010298D01*
X027237Y010245D01*
X027290Y010201D01*
X027350Y010169D01*
X027416Y010149D01*
X027484Y010142D01*
X028634Y010142D01*
X028634Y010312D01*
X028824Y010325D01*
X029011Y010365D01*
X029189Y010431D01*
X029357Y010521D01*
X029510Y010635D01*
X029645Y010769D01*
X029760Y010921D01*
X029852Y011088D01*
X029919Y011266D01*
X029960Y011452D01*
X029974Y011642D01*
X029968Y011556D02*
X030134Y011556D01*
X030134Y011437D02*
X029957Y011437D01*
X029930Y011319D02*
X030134Y011319D01*
X030134Y011200D02*
X029894Y011200D01*
X029848Y011082D02*
X030134Y011082D01*
X030134Y010963D02*
X029783Y010963D01*
X029702Y010845D02*
X030134Y010845D01*
X030134Y010726D02*
X029602Y010726D01*
X029473Y010608D02*
X030134Y010608D01*
X030134Y010489D02*
X029297Y010489D01*
X029026Y010371D02*
X030111Y010371D01*
X030038Y010252D02*
X028634Y010252D01*
X027231Y010252D01*
X027157Y010371D02*
X028368Y010371D01*
X028026Y010489D02*
X027135Y010489D01*
X027134Y010608D02*
X027836Y010608D01*
X027698Y010726D02*
X027134Y010726D01*
X027134Y010845D02*
X027592Y010845D01*
X027506Y010963D02*
X027134Y010963D01*
X027134Y011082D02*
X027441Y011082D01*
X027391Y011200D02*
X027134Y011200D01*
X027134Y011319D02*
X027352Y011319D01*
X027325Y011437D02*
X027134Y011437D01*
X027134Y011556D02*
X027312Y011556D01*
X027307Y011674D02*
X027134Y011674D01*
X027134Y011793D02*
X027315Y011793D01*
X027335Y011911D02*
X027134Y011911D01*
X027134Y012030D02*
X027363Y012030D01*
X027407Y012148D02*
X027134Y012148D01*
X027134Y012267D02*
X027464Y012267D01*
X027533Y012385D02*
X027134Y012385D01*
X027134Y012504D02*
X027622Y012504D01*
X027738Y012622D02*
X027134Y012622D01*
X027134Y012741D02*
X027888Y012741D01*
X028101Y012859D02*
X027141Y012859D01*
X026512Y012792D02*
X026512Y011642D01*
X026342Y011642D01*
X026329Y011832D01*
X026290Y012018D01*
X026224Y012197D01*
X026133Y012365D01*
X026019Y012518D01*
X025885Y012653D01*
X025733Y012767D01*
X025566Y012859D01*
X025388Y012927D01*
X025202Y012968D01*
X025012Y012982D01*
X025012Y013142D01*
X025012Y012972D01*
X024823Y012959D01*
X024638Y012918D01*
X024460Y012852D01*
X024293Y012761D01*
X024141Y012647D01*
X024007Y012513D01*
X023893Y012361D01*
X023802Y012195D01*
X023736Y012017D01*
X023696Y011831D01*
X023682Y011642D01*
X023512Y011642D01*
X023512Y012792D01*
X023519Y012860D01*
X023539Y012926D01*
X023571Y012987D01*
X023615Y013040D01*
X023668Y013083D01*
X023728Y013115D01*
X023794Y013135D01*
X023862Y013142D01*
X025012Y013142D01*
X026162Y013142D01*
X026230Y013135D01*
X026296Y013115D01*
X026357Y013083D01*
X026410Y013040D01*
X026453Y012987D01*
X026486Y012926D01*
X026505Y012860D01*
X026512Y012792D01*
X026512Y012741D02*
X025769Y012741D01*
X025916Y012622D02*
X026512Y012622D01*
X026512Y012504D02*
X026030Y012504D01*
X026118Y012385D02*
X026512Y012385D01*
X026512Y012267D02*
X026186Y012267D01*
X026242Y012148D02*
X026512Y012148D01*
X026512Y012030D02*
X026285Y012030D01*
X026312Y011911D02*
X026512Y011911D01*
X026512Y011793D02*
X026332Y011793D01*
X026340Y011674D02*
X026512Y011674D01*
X026512Y011642D02*
X026512Y010492D01*
X026505Y010424D01*
X026486Y010358D01*
X026453Y010298D01*
X026410Y010245D01*
X026357Y010201D01*
X026296Y010169D01*
X026230Y010149D01*
X026162Y010142D01*
X025012Y010142D01*
X025012Y010342D01*
X024824Y010354D01*
X024640Y010393D01*
X024463Y010457D01*
X024297Y010546D01*
X024145Y010658D01*
X024011Y010790D01*
X023897Y010940D01*
X023806Y011105D01*
X023738Y011281D01*
X023697Y011464D01*
X023682Y011652D01*
X023512Y011642D01*
X023512Y010492D01*
X023519Y010424D01*
X023539Y010358D01*
X023571Y010298D01*
X023615Y010245D01*
X023668Y010201D01*
X023728Y010169D01*
X023794Y010149D01*
X023862Y010142D01*
X025012Y010142D01*
X025012Y010312D01*
X025202Y010325D01*
X025389Y010365D01*
X025567Y010431D01*
X025735Y010521D01*
X025888Y010635D01*
X026023Y010769D01*
X026138Y010921D01*
X026229Y011088D01*
X026297Y011266D01*
X026338Y011452D01*
X026352Y011642D01*
X026512Y011642D01*
X026512Y011556D02*
X026346Y011556D01*
X026335Y011437D02*
X026512Y011437D01*
X026512Y011319D02*
X026308Y011319D01*
X026272Y011200D02*
X026512Y011200D01*
X026512Y011082D02*
X026226Y011082D01*
X026161Y010963D02*
X026512Y010963D01*
X026512Y010845D02*
X026080Y010845D01*
X025980Y010726D02*
X026512Y010726D01*
X026512Y010608D02*
X025851Y010608D01*
X025675Y010489D02*
X026512Y010489D01*
X026489Y010371D02*
X025404Y010371D01*
X025012Y010252D02*
X023609Y010252D01*
X023535Y010371D02*
X024746Y010371D01*
X025012Y010252D02*
X026416Y010252D01*
X024403Y010489D02*
X023512Y010489D01*
X023512Y010608D02*
X024214Y010608D01*
X024076Y010726D02*
X023512Y010726D01*
X023512Y010845D02*
X023970Y010845D01*
X023884Y010963D02*
X023512Y010963D01*
X023512Y011082D02*
X023818Y011082D01*
X023769Y011200D02*
X023512Y011200D01*
X023512Y011319D02*
X023730Y011319D01*
X023703Y011437D02*
X023512Y011437D01*
X023512Y011556D02*
X023690Y011556D01*
X023684Y011674D02*
X023512Y011674D01*
X023512Y011793D02*
X023693Y011793D01*
X023713Y011911D02*
X023512Y011911D01*
X023512Y012030D02*
X023741Y012030D01*
X023785Y012148D02*
X023512Y012148D01*
X023512Y012267D02*
X023842Y012267D01*
X023911Y012385D02*
X023512Y012385D01*
X023512Y012504D02*
X024000Y012504D01*
X024116Y012622D02*
X023512Y012622D01*
X023512Y012741D02*
X024266Y012741D01*
X024479Y012859D02*
X023519Y012859D01*
X023566Y012978D02*
X025012Y012978D01*
X025072Y012978D02*
X026458Y012978D01*
X026506Y012859D02*
X025567Y012859D01*
X025012Y013096D02*
X023692Y013096D01*
X022887Y012860D02*
X022894Y012792D01*
X022894Y011642D01*
X022724Y011642D01*
X022711Y011832D01*
X022671Y012018D01*
X022606Y012197D01*
X022515Y012365D01*
X022401Y012518D01*
X022267Y012653D01*
X022115Y012767D01*
X021948Y012859D01*
X021770Y012927D01*
X021584Y012968D01*
X021394Y012982D01*
X021394Y013142D01*
X021394Y012972D01*
X021205Y012959D01*
X021019Y012918D01*
X020842Y012852D01*
X020675Y012761D01*
X020523Y012647D01*
X020389Y012513D01*
X020275Y012361D01*
X020184Y012195D01*
X020118Y012017D01*
X020078Y011831D01*
X020064Y011642D01*
X019894Y011642D01*
X019894Y012792D01*
X019901Y012860D01*
X019921Y012926D01*
X019953Y012987D01*
X019997Y013040D01*
X020050Y013083D01*
X020110Y013115D01*
X020176Y013135D01*
X020244Y013142D01*
X021394Y013142D01*
X022544Y013142D01*
X022612Y013135D01*
X022678Y013115D01*
X022739Y013083D01*
X022792Y013040D01*
X022835Y012987D01*
X022867Y012926D01*
X022887Y012860D01*
X022887Y012859D02*
X021949Y012859D01*
X022151Y012741D02*
X022894Y012741D01*
X022894Y012622D02*
X022298Y012622D01*
X022412Y012504D02*
X022894Y012504D01*
X022894Y012385D02*
X022500Y012385D01*
X022568Y012267D02*
X022894Y012267D01*
X022894Y012148D02*
X022624Y012148D01*
X022667Y012030D02*
X022894Y012030D01*
X022894Y011911D02*
X022694Y011911D01*
X022714Y011793D02*
X022894Y011793D01*
X022894Y011674D02*
X022722Y011674D01*
X022734Y011642D02*
X022894Y011642D01*
X022894Y010492D01*
X022887Y010424D01*
X022867Y010358D01*
X022835Y010298D01*
X022792Y010245D01*
X022739Y010201D01*
X022678Y010169D01*
X022612Y010149D01*
X022544Y010142D01*
X021394Y010142D01*
X021394Y010342D01*
X021206Y010354D01*
X021022Y010393D01*
X020845Y010457D01*
X020679Y010546D01*
X020527Y010658D01*
X020393Y010790D01*
X020279Y010940D01*
X020188Y011105D01*
X020120Y011281D01*
X020079Y011464D01*
X020064Y011652D01*
X019894Y011642D01*
X019894Y010492D01*
X019901Y010424D01*
X019921Y010358D01*
X019953Y010298D01*
X019997Y010245D01*
X020050Y010201D01*
X020110Y010169D01*
X020176Y010149D01*
X020244Y010142D01*
X021394Y010142D01*
X021394Y010312D01*
X021584Y010325D01*
X021770Y010365D01*
X021949Y010431D01*
X022117Y010521D01*
X022270Y010635D01*
X022405Y010769D01*
X022519Y010921D01*
X022611Y011088D01*
X022679Y011266D01*
X022720Y011452D01*
X022734Y011642D01*
X022728Y011556D02*
X022894Y011556D01*
X022894Y011437D02*
X022716Y011437D01*
X022690Y011319D02*
X022894Y011319D01*
X022894Y011200D02*
X022654Y011200D01*
X022608Y011082D02*
X022894Y011082D01*
X022894Y010963D02*
X022543Y010963D01*
X022462Y010845D02*
X022894Y010845D01*
X022894Y010726D02*
X022361Y010726D01*
X022233Y010608D02*
X022894Y010608D01*
X022894Y010489D02*
X022057Y010489D01*
X021786Y010371D02*
X022871Y010371D01*
X022798Y010252D02*
X021394Y010252D01*
X019990Y010252D01*
X019917Y010371D02*
X021127Y010371D01*
X020785Y010489D02*
X019894Y010489D01*
X019894Y010608D02*
X020596Y010608D01*
X020458Y010726D02*
X019894Y010726D01*
X019894Y010845D02*
X020352Y010845D01*
X020266Y010963D02*
X019894Y010963D01*
X019894Y011082D02*
X020200Y011082D01*
X020151Y011200D02*
X019894Y011200D01*
X019894Y011319D02*
X020112Y011319D01*
X020085Y011437D02*
X019894Y011437D01*
X019894Y011556D02*
X020072Y011556D01*
X020066Y011674D02*
X019894Y011674D01*
X019894Y011793D02*
X020075Y011793D01*
X020095Y011911D02*
X019894Y011911D01*
X019894Y012030D02*
X020123Y012030D01*
X020167Y012148D02*
X019894Y012148D01*
X019894Y012267D02*
X020224Y012267D01*
X020293Y012385D02*
X019894Y012385D01*
X019894Y012504D02*
X020382Y012504D01*
X020498Y012622D02*
X019894Y012622D01*
X019894Y012741D02*
X020648Y012741D01*
X020861Y012859D02*
X019901Y012859D01*
X019948Y012978D02*
X021394Y012978D01*
X021454Y012978D02*
X022840Y012978D01*
X022714Y013096D02*
X021394Y013096D01*
X020074Y013096D01*
X019242Y012864D02*
X019248Y012796D01*
X019248Y011646D01*
X019078Y011646D01*
X019066Y011836D01*
X019026Y012022D01*
X018960Y012201D01*
X018869Y012369D01*
X018756Y012522D01*
X018621Y012657D01*
X018469Y012771D01*
X018303Y012863D01*
X018124Y012931D01*
X017938Y012972D01*
X017748Y012986D01*
X017748Y013146D01*
X017748Y012976D01*
X017559Y012963D01*
X017374Y012922D01*
X017196Y012856D01*
X017029Y012765D01*
X016877Y012651D01*
X016743Y012517D01*
X016630Y012365D01*
X016539Y012199D01*
X016472Y012021D01*
X016432Y011835D01*
X016418Y011646D01*
X016248Y011646D01*
X016248Y012796D01*
X016255Y012864D01*
X016275Y012930D01*
X016307Y012991D01*
X016351Y013044D01*
X016404Y013087D01*
X016464Y013119D01*
X016530Y013139D01*
X016598Y013146D01*
X017748Y013146D01*
X018898Y013146D01*
X018967Y013139D01*
X019032Y013119D01*
X019093Y013087D01*
X019146Y013044D01*
X019189Y012991D01*
X019222Y012930D01*
X019242Y012864D01*
X019242Y012859D02*
X018310Y012859D01*
X018510Y012741D02*
X019248Y012741D01*
X019248Y012622D02*
X018656Y012622D01*
X018769Y012504D02*
X019248Y012504D01*
X019248Y012385D02*
X018857Y012385D01*
X018924Y012267D02*
X019248Y012267D01*
X019248Y012148D02*
X018979Y012148D01*
X019023Y012030D02*
X019248Y012030D01*
X019248Y011911D02*
X019050Y011911D01*
X019068Y011793D02*
X019248Y011793D01*
X019248Y011674D02*
X019077Y011674D01*
X019088Y011646D02*
X019074Y011456D01*
X019033Y011270D01*
X018966Y011092D01*
X018874Y010925D01*
X018759Y010773D01*
X018624Y010639D01*
X018471Y010525D01*
X018303Y010435D01*
X018125Y010369D01*
X017938Y010329D01*
X017748Y010316D01*
X017748Y010146D01*
X017748Y010346D01*
X017560Y010358D01*
X017376Y010397D01*
X017199Y010461D01*
X017033Y010550D01*
X016882Y010662D01*
X016747Y010794D01*
X016633Y010944D01*
X016542Y011109D01*
X016475Y011285D01*
X016433Y011468D01*
X016418Y011656D01*
X016248Y011646D01*
X016248Y010496D01*
X016255Y010428D01*
X016275Y010362D01*
X016307Y010302D01*
X016351Y010249D01*
X016404Y010205D01*
X016464Y010173D01*
X016530Y010153D01*
X016598Y010146D01*
X017748Y010146D01*
X018898Y010146D01*
X018967Y010153D01*
X019032Y010173D01*
X019093Y010205D01*
X019146Y010249D01*
X019189Y010302D01*
X019222Y010362D01*
X019242Y010428D01*
X019248Y010496D01*
X019248Y011646D01*
X019088Y011646D01*
X019082Y011556D02*
X019248Y011556D01*
X019248Y011437D02*
X019070Y011437D01*
X019044Y011319D02*
X019248Y011319D01*
X019248Y011200D02*
X019007Y011200D01*
X018960Y011082D02*
X019248Y011082D01*
X019248Y010963D02*
X018895Y010963D01*
X018813Y010845D02*
X019248Y010845D01*
X019248Y010726D02*
X018712Y010726D01*
X018582Y010608D02*
X019248Y010608D01*
X019248Y010489D02*
X018404Y010489D01*
X018130Y010371D02*
X019224Y010371D01*
X019149Y010252D02*
X017748Y010252D01*
X016348Y010252D01*
X016272Y010371D02*
X017501Y010371D01*
X017147Y010489D02*
X016249Y010489D01*
X016248Y010608D02*
X016955Y010608D01*
X016816Y010726D02*
X016248Y010726D01*
X016248Y010845D02*
X016709Y010845D01*
X016623Y010963D02*
X016248Y010963D01*
X016248Y011082D02*
X016557Y011082D01*
X016507Y011200D02*
X016248Y011200D01*
X016248Y011319D02*
X016467Y011319D01*
X016440Y011437D02*
X016248Y011437D01*
X016248Y011556D02*
X016426Y011556D01*
X016420Y011674D02*
X016248Y011674D01*
X016248Y011793D02*
X016429Y011793D01*
X016448Y011911D02*
X016248Y011911D01*
X016248Y012030D02*
X016476Y012030D01*
X016520Y012148D02*
X016248Y012148D01*
X016248Y012267D02*
X016576Y012267D01*
X016645Y012385D02*
X016248Y012385D01*
X016248Y012504D02*
X016733Y012504D01*
X016848Y012622D02*
X016248Y012622D01*
X016248Y012741D02*
X016997Y012741D01*
X017205Y012859D02*
X016255Y012859D01*
X016301Y012978D02*
X017748Y012978D01*
X017860Y012978D02*
X019196Y012978D01*
X019076Y013096D02*
X017748Y013096D01*
X016421Y013096D01*
X025012Y013096D02*
X026332Y013096D01*
X026162Y007142D02*
X025012Y007142D01*
X025012Y006942D01*
X025200Y006930D01*
X025384Y006891D01*
X025561Y006827D01*
X025727Y006738D01*
X025879Y006626D01*
X026013Y006494D01*
X026127Y006344D01*
X026219Y006180D01*
X026286Y006004D01*
X026327Y005820D01*
X026342Y005632D01*
X026512Y005642D01*
X026512Y004492D01*
X026505Y004424D01*
X026486Y004358D01*
X026453Y004298D01*
X026410Y004245D01*
X026357Y004201D01*
X026296Y004169D01*
X026230Y004149D01*
X026162Y004142D01*
X025012Y004142D01*
X025012Y004312D01*
X025201Y004326D01*
X025387Y004366D01*
X025565Y004432D01*
X025731Y004523D01*
X025883Y004637D01*
X026017Y004771D01*
X026131Y004923D01*
X026222Y005090D01*
X026288Y005267D01*
X026329Y005453D01*
X026342Y005642D01*
X026512Y005642D01*
X026512Y006792D01*
X026505Y006860D01*
X026486Y006926D01*
X026453Y006987D01*
X026410Y007040D01*
X026357Y007083D01*
X026296Y007115D01*
X026230Y007135D01*
X026162Y007142D01*
X026394Y007053D02*
X025012Y007053D01*
X023631Y007053D01*
X023615Y007040D02*
X023668Y007083D01*
X023728Y007115D01*
X023794Y007135D01*
X023862Y007142D01*
X025012Y007142D01*
X025012Y006972D01*
X024822Y006959D01*
X024636Y006919D01*
X024457Y006854D01*
X024290Y006763D01*
X024137Y006649D01*
X024002Y006515D01*
X023887Y006363D01*
X023795Y006196D01*
X023728Y006018D01*
X023687Y005832D01*
X023672Y005642D01*
X023512Y005642D01*
X023682Y005642D01*
X023695Y005452D01*
X023735Y005266D01*
X023801Y005087D01*
X023891Y004920D01*
X023512Y004920D01*
X023512Y005038D02*
X023827Y005038D01*
X023775Y005157D02*
X023512Y005157D01*
X023512Y005275D02*
X023733Y005275D01*
X023708Y005394D02*
X023512Y005394D01*
X023512Y005512D02*
X023691Y005512D01*
X023683Y005631D02*
X023512Y005631D01*
X023512Y005642D02*
X023512Y004492D01*
X023519Y004424D01*
X023539Y004358D01*
X023571Y004298D01*
X023615Y004245D01*
X023668Y004201D01*
X023728Y004169D01*
X023794Y004149D01*
X023862Y004142D01*
X025012Y004142D01*
X025012Y004302D01*
X024822Y004316D01*
X024636Y004358D01*
X024458Y004425D01*
X024291Y004517D01*
X024139Y004631D01*
X024005Y004767D01*
X023891Y004920D01*
X023979Y004801D02*
X023512Y004801D01*
X023512Y004683D02*
X024088Y004683D01*
X024228Y004564D02*
X023512Y004564D01*
X023517Y004446D02*
X024420Y004446D01*
X024774Y004327D02*
X023555Y004327D01*
X023659Y004209D02*
X025012Y004209D01*
X026366Y004209D01*
X026469Y004327D02*
X025208Y004327D01*
X025589Y004446D02*
X026508Y004446D01*
X026512Y004564D02*
X025786Y004564D01*
X025929Y004683D02*
X026512Y004683D01*
X026512Y004801D02*
X026040Y004801D01*
X026128Y004920D02*
X026512Y004920D01*
X026512Y005038D02*
X026194Y005038D01*
X026247Y005157D02*
X026512Y005157D01*
X026512Y005275D02*
X026290Y005275D01*
X026316Y005394D02*
X026512Y005394D01*
X026512Y005512D02*
X026333Y005512D01*
X026341Y005631D02*
X026512Y005631D01*
X026512Y005749D02*
X026333Y005749D01*
X026317Y005868D02*
X026512Y005868D01*
X026512Y005986D02*
X026290Y005986D01*
X026247Y006105D02*
X026512Y006105D01*
X026512Y006223D02*
X026195Y006223D01*
X026129Y006342D02*
X026512Y006342D01*
X026512Y006460D02*
X026039Y006460D01*
X025927Y006579D02*
X026512Y006579D01*
X026512Y006697D02*
X025783Y006697D01*
X025583Y006816D02*
X026510Y006816D01*
X026481Y006934D02*
X025137Y006934D01*
X024705Y006934D02*
X023543Y006934D01*
X023539Y006926D02*
X023571Y006987D01*
X023615Y007040D01*
X023539Y006926D02*
X023519Y006860D01*
X023512Y006792D01*
X023512Y005642D01*
X023512Y005749D02*
X023680Y005749D01*
X023694Y005868D02*
X023512Y005868D01*
X023512Y005986D02*
X023721Y005986D01*
X023760Y006105D02*
X023512Y006105D01*
X023512Y006223D02*
X023810Y006223D01*
X023875Y006342D02*
X023512Y006342D01*
X023512Y006460D02*
X023960Y006460D01*
X024066Y006579D02*
X023512Y006579D01*
X023512Y006697D02*
X024201Y006697D01*
X024387Y006816D02*
X023515Y006816D01*
X022894Y006792D02*
X022887Y006860D01*
X022867Y006926D01*
X022835Y006987D01*
X022792Y007040D01*
X022739Y007083D01*
X022678Y007115D01*
X022612Y007135D01*
X022544Y007142D01*
X021394Y007142D01*
X021394Y006942D01*
X021582Y006930D01*
X021766Y006891D01*
X021943Y006827D01*
X022109Y006738D01*
X022261Y006626D01*
X022395Y006494D01*
X022509Y006344D01*
X022601Y006180D01*
X022668Y006004D01*
X022709Y005820D01*
X022724Y005632D01*
X022894Y005642D01*
X022894Y004492D01*
X022887Y004424D01*
X022867Y004358D01*
X022835Y004298D01*
X022792Y004245D01*
X022739Y004201D01*
X022678Y004169D01*
X022612Y004149D01*
X022544Y004142D01*
X021394Y004142D01*
X021394Y004312D01*
X021583Y004326D01*
X021769Y004366D01*
X021947Y004432D01*
X022113Y004523D01*
X022265Y004637D01*
X022399Y004771D01*
X022513Y004923D01*
X022604Y005090D01*
X022670Y005267D01*
X022711Y005453D01*
X022724Y005642D01*
X022894Y005642D01*
X022894Y006792D01*
X022892Y006816D02*
X021965Y006816D01*
X022165Y006697D02*
X022894Y006697D01*
X022894Y006579D02*
X022309Y006579D01*
X022421Y006460D02*
X022894Y006460D01*
X022894Y006342D02*
X022511Y006342D01*
X022576Y006223D02*
X022894Y006223D01*
X022894Y006105D02*
X022629Y006105D01*
X022672Y005986D02*
X022894Y005986D01*
X022894Y005868D02*
X022698Y005868D01*
X022715Y005749D02*
X022894Y005749D01*
X022894Y005631D02*
X022723Y005631D01*
X022715Y005512D02*
X022894Y005512D01*
X022894Y005394D02*
X022698Y005394D01*
X022672Y005275D02*
X022894Y005275D01*
X022894Y005157D02*
X022629Y005157D01*
X022576Y005038D02*
X022894Y005038D01*
X022894Y004920D02*
X022510Y004920D01*
X022422Y004801D02*
X022894Y004801D01*
X022894Y004683D02*
X022311Y004683D01*
X022168Y004564D02*
X022894Y004564D01*
X022890Y004446D02*
X021971Y004446D01*
X021590Y004327D02*
X022851Y004327D01*
X022748Y004209D02*
X021394Y004209D01*
X020040Y004209D01*
X020050Y004201D02*
X019997Y004245D01*
X019953Y004298D01*
X019921Y004358D01*
X019901Y004424D01*
X019894Y004492D01*
X019894Y005642D01*
X020064Y005642D01*
X020077Y005452D01*
X020117Y005266D01*
X020183Y005087D01*
X020273Y004920D01*
X019894Y004920D01*
X019894Y005038D02*
X020209Y005038D01*
X020157Y005157D02*
X019894Y005157D01*
X019894Y005275D02*
X020115Y005275D01*
X020089Y005394D02*
X019894Y005394D01*
X019894Y005512D02*
X020073Y005512D01*
X020065Y005631D02*
X019894Y005631D01*
X019894Y005642D02*
X019894Y006792D01*
X019901Y006860D01*
X019921Y006926D01*
X019953Y006987D01*
X019997Y007040D01*
X020050Y007083D01*
X020110Y007115D01*
X020176Y007135D01*
X020244Y007142D01*
X021394Y007142D01*
X021394Y006972D01*
X021204Y006959D01*
X021018Y006919D01*
X020839Y006854D01*
X020672Y006763D01*
X020519Y006649D01*
X020383Y006515D01*
X020269Y006363D01*
X020177Y006196D01*
X020110Y006018D01*
X020068Y005832D01*
X020054Y005642D01*
X019894Y005642D01*
X019894Y005749D02*
X020062Y005749D01*
X020076Y005868D02*
X019894Y005868D01*
X019894Y005986D02*
X020103Y005986D01*
X020142Y006105D02*
X019894Y006105D01*
X019894Y006223D02*
X020192Y006223D01*
X020257Y006342D02*
X019894Y006342D01*
X019894Y006460D02*
X020342Y006460D01*
X020447Y006579D02*
X019894Y006579D01*
X019894Y006697D02*
X020583Y006697D01*
X020769Y006816D02*
X019896Y006816D01*
X019925Y006934D02*
X021086Y006934D01*
X021394Y007053D02*
X022776Y007053D01*
X022863Y006934D02*
X021519Y006934D01*
X021394Y007053D02*
X020012Y007053D01*
X019246Y006860D02*
X019226Y006926D01*
X019193Y006987D01*
X019150Y007040D01*
X019097Y007083D01*
X019036Y007115D01*
X018971Y007135D01*
X018902Y007142D01*
X017752Y007142D01*
X017752Y006942D01*
X017940Y006930D01*
X018125Y006891D01*
X018302Y006827D01*
X018468Y006738D01*
X018619Y006626D01*
X018753Y006494D01*
X018867Y006344D01*
X018959Y006180D01*
X019026Y006004D01*
X019068Y005820D01*
X019082Y005632D01*
X019252Y005642D01*
X019252Y004492D01*
X019246Y004424D01*
X019226Y004358D01*
X019193Y004298D01*
X019150Y004245D01*
X019097Y004201D01*
X019036Y004169D01*
X018971Y004149D01*
X018902Y004142D01*
X017752Y004142D01*
X017752Y004312D01*
X017942Y004326D01*
X018127Y004366D01*
X018305Y004432D01*
X018471Y004523D01*
X018623Y004637D01*
X018758Y004771D01*
X018871Y004923D01*
X018962Y005090D01*
X019028Y005267D01*
X019069Y005453D01*
X019082Y005642D01*
X019252Y005642D01*
X019252Y006792D01*
X019246Y006860D01*
X019250Y006816D02*
X018323Y006816D01*
X018523Y006697D02*
X019252Y006697D01*
X019252Y006579D02*
X018668Y006579D01*
X018779Y006460D02*
X019252Y006460D01*
X019252Y006342D02*
X018869Y006342D01*
X018935Y006223D02*
X019252Y006223D01*
X019252Y006105D02*
X018988Y006105D01*
X019030Y005986D02*
X019252Y005986D01*
X019252Y005868D02*
X019057Y005868D01*
X019073Y005749D02*
X019252Y005749D01*
X019252Y005631D02*
X019082Y005631D01*
X019073Y005512D02*
X019252Y005512D01*
X019252Y005394D02*
X019056Y005394D01*
X019030Y005275D02*
X019252Y005275D01*
X019252Y005157D02*
X018987Y005157D01*
X018934Y005038D02*
X019252Y005038D01*
X019252Y004920D02*
X018869Y004920D01*
X018780Y004801D02*
X019252Y004801D01*
X019252Y004683D02*
X018669Y004683D01*
X018526Y004564D02*
X019252Y004564D01*
X019248Y004446D02*
X018329Y004446D01*
X017948Y004327D02*
X019209Y004327D01*
X019106Y004209D02*
X017752Y004209D01*
X016399Y004209D01*
X016408Y004201D02*
X016355Y004245D01*
X016311Y004298D01*
X016279Y004358D01*
X016259Y004424D01*
X016252Y004492D01*
X016252Y005642D01*
X016422Y005642D01*
X016435Y005452D01*
X016475Y005266D01*
X016541Y005087D01*
X016632Y004920D01*
X016252Y004920D01*
X016252Y005038D02*
X016567Y005038D01*
X016515Y005157D02*
X016252Y005157D01*
X016252Y005275D02*
X016473Y005275D01*
X016448Y005394D02*
X016252Y005394D01*
X016252Y005512D02*
X016431Y005512D01*
X016423Y005631D02*
X016252Y005631D01*
X016252Y005642D02*
X016252Y006792D01*
X016259Y006860D01*
X016279Y006926D01*
X016311Y006987D01*
X016355Y007040D01*
X016408Y007083D01*
X016468Y007115D01*
X016534Y007135D01*
X016602Y007142D01*
X017752Y007142D01*
X017752Y006972D01*
X017562Y006959D01*
X017376Y006919D01*
X017197Y006854D01*
X017030Y006763D01*
X016877Y006649D01*
X016742Y006515D01*
X016627Y006363D01*
X016535Y006196D01*
X016468Y006018D01*
X016427Y005832D01*
X016412Y005642D01*
X016252Y005642D01*
X016252Y005749D02*
X016420Y005749D01*
X016435Y005868D02*
X016252Y005868D01*
X016252Y005986D02*
X016461Y005986D01*
X016501Y006105D02*
X016252Y006105D01*
X016252Y006223D02*
X016550Y006223D01*
X016615Y006342D02*
X016252Y006342D01*
X016252Y006460D02*
X016700Y006460D01*
X016806Y006579D02*
X016252Y006579D01*
X016252Y006697D02*
X016941Y006697D01*
X017127Y006816D02*
X016255Y006816D01*
X016283Y006934D02*
X017445Y006934D01*
X017752Y007053D02*
X019134Y007053D01*
X019221Y006934D02*
X017877Y006934D01*
X017752Y007053D02*
X016371Y007053D01*
X016632Y004920D02*
X016745Y004767D01*
X016879Y004631D01*
X017031Y004517D01*
X017198Y004425D01*
X017376Y004358D01*
X017562Y004316D01*
X017752Y004302D01*
X017752Y004142D01*
X016602Y004142D01*
X016534Y004149D01*
X016468Y004169D01*
X016408Y004201D01*
X016296Y004327D02*
X017514Y004327D01*
X017161Y004446D02*
X016257Y004446D01*
X016252Y004564D02*
X016969Y004564D01*
X016829Y004683D02*
X016252Y004683D01*
X016252Y004801D02*
X016720Y004801D01*
X019894Y004801D02*
X020361Y004801D01*
X020387Y004767D02*
X020521Y004631D01*
X020673Y004517D01*
X020840Y004425D01*
X021018Y004358D01*
X021204Y004316D01*
X021394Y004302D01*
X021394Y004142D01*
X020244Y004142D01*
X020176Y004149D01*
X020110Y004169D01*
X020050Y004201D01*
X019937Y004327D02*
X021156Y004327D01*
X020802Y004446D02*
X019899Y004446D01*
X019894Y004564D02*
X020610Y004564D01*
X020470Y004683D02*
X019894Y004683D01*
X020273Y004920D02*
X020387Y004767D01*
X027134Y004801D02*
X027601Y004801D01*
X027627Y004767D02*
X027761Y004631D01*
X027913Y004517D01*
X028080Y004425D01*
X028258Y004358D01*
X028444Y004316D01*
X028634Y004302D01*
X028634Y004142D01*
X028634Y004312D01*
X028824Y004326D01*
X029009Y004366D01*
X029187Y004432D01*
X029353Y004523D01*
X029505Y004637D01*
X029639Y004771D01*
X029753Y004923D01*
X029844Y005090D01*
X029910Y005267D01*
X029951Y005453D01*
X029964Y005642D01*
X030134Y005642D01*
X030134Y004492D01*
X030128Y004424D01*
X030108Y004358D01*
X030075Y004298D01*
X030032Y004245D01*
X029979Y004201D01*
X029918Y004169D01*
X029853Y004149D01*
X029784Y004142D01*
X028634Y004142D01*
X027484Y004142D01*
X027416Y004149D01*
X027350Y004169D01*
X027290Y004201D01*
X027237Y004245D01*
X027193Y004298D01*
X027161Y004358D01*
X027141Y004424D01*
X027134Y004492D01*
X027134Y005642D01*
X027304Y005642D01*
X027317Y005452D01*
X027357Y005266D01*
X027423Y005087D01*
X027513Y004920D01*
X027134Y004920D01*
X027134Y005038D02*
X027449Y005038D01*
X027397Y005157D02*
X027134Y005157D01*
X027134Y005275D02*
X027355Y005275D01*
X027330Y005394D02*
X027134Y005394D01*
X027134Y005512D02*
X027313Y005512D01*
X027305Y005631D02*
X027134Y005631D01*
X027134Y005642D02*
X027134Y006792D01*
X027141Y006860D01*
X027161Y006926D01*
X027193Y006987D01*
X027237Y007040D01*
X027290Y007083D01*
X027350Y007115D01*
X027416Y007135D01*
X027484Y007142D01*
X028634Y007142D01*
X028634Y006942D01*
X028822Y006930D01*
X029007Y006891D01*
X029184Y006827D01*
X029349Y006738D01*
X029501Y006626D01*
X029635Y006494D01*
X029749Y006344D01*
X029841Y006180D01*
X029908Y006004D01*
X029949Y005820D01*
X029964Y005632D01*
X030134Y005642D01*
X030134Y006792D01*
X030128Y006860D01*
X030108Y006926D01*
X030075Y006987D01*
X030032Y007040D01*
X029979Y007083D01*
X029918Y007115D01*
X029853Y007135D01*
X029784Y007142D01*
X028634Y007142D01*
X028634Y006972D01*
X028444Y006959D01*
X028258Y006919D01*
X028079Y006854D01*
X027912Y006763D01*
X027759Y006649D01*
X027624Y006515D01*
X027509Y006363D01*
X027417Y006196D01*
X027350Y006018D01*
X027309Y005832D01*
X027294Y005642D01*
X027134Y005642D01*
X027134Y005749D02*
X027302Y005749D01*
X027316Y005868D02*
X027134Y005868D01*
X027134Y005986D02*
X027343Y005986D01*
X027382Y006105D02*
X027134Y006105D01*
X027134Y006223D02*
X027432Y006223D01*
X027497Y006342D02*
X027134Y006342D01*
X027134Y006460D02*
X027582Y006460D01*
X027688Y006579D02*
X027134Y006579D01*
X027134Y006697D02*
X027823Y006697D01*
X028009Y006816D02*
X027137Y006816D01*
X027165Y006934D02*
X028327Y006934D01*
X028634Y007053D02*
X030016Y007053D01*
X030103Y006934D02*
X028759Y006934D01*
X028634Y007053D02*
X027253Y007053D01*
X029205Y006816D02*
X030132Y006816D01*
X030134Y006697D02*
X029405Y006697D01*
X029549Y006579D02*
X030134Y006579D01*
X030134Y006460D02*
X029661Y006460D01*
X029751Y006342D02*
X030134Y006342D01*
X030134Y006223D02*
X029817Y006223D01*
X029869Y006105D02*
X030134Y006105D01*
X030134Y005986D02*
X029912Y005986D01*
X029939Y005868D02*
X030134Y005868D01*
X030134Y005749D02*
X029955Y005749D01*
X029963Y005631D02*
X030134Y005631D01*
X030134Y005512D02*
X029955Y005512D01*
X029938Y005394D02*
X030134Y005394D01*
X030134Y005275D02*
X029912Y005275D01*
X029869Y005157D02*
X030134Y005157D01*
X030134Y005038D02*
X029816Y005038D01*
X029751Y004920D02*
X030134Y004920D01*
X030134Y004801D02*
X029662Y004801D01*
X029551Y004683D02*
X030134Y004683D01*
X030134Y004564D02*
X029408Y004564D01*
X029211Y004446D02*
X030130Y004446D01*
X030091Y004327D02*
X028830Y004327D01*
X028634Y004209D02*
X029988Y004209D01*
X028634Y004209D02*
X027281Y004209D01*
X027177Y004327D02*
X028396Y004327D01*
X028042Y004446D02*
X027139Y004446D01*
X027134Y004564D02*
X027850Y004564D01*
X027710Y004683D02*
X027134Y004683D01*
X027513Y004920D02*
X027627Y004767D01*
D15*
X027234Y004592D02*
X027234Y003942D01*
X027234Y002592D01*
X027236Y002558D01*
X027242Y002525D01*
X027251Y002493D01*
X027264Y002462D01*
X027280Y002432D01*
X027299Y002405D01*
X027322Y002380D01*
X027347Y002357D01*
X027374Y002338D01*
X027404Y002322D01*
X027435Y002309D01*
X027467Y002300D01*
X027500Y002294D01*
X027534Y002292D01*
X029734Y002292D01*
X029768Y002294D01*
X029801Y002300D01*
X029833Y002309D01*
X029864Y002322D01*
X029894Y002338D01*
X029921Y002357D01*
X029946Y002380D01*
X029969Y002405D01*
X029988Y002432D01*
X030004Y002462D01*
X030017Y002493D01*
X030026Y002525D01*
X030032Y002558D01*
X030034Y002592D01*
X030034Y003942D01*
X030034Y004642D01*
X029744Y004202D02*
X027544Y004202D01*
X027512Y004203D01*
X027480Y004200D01*
X027448Y004194D01*
X027418Y004185D01*
X027389Y004172D01*
X027361Y004155D01*
X027335Y004136D01*
X027312Y004114D01*
X027291Y004090D01*
X027273Y004063D01*
X027258Y004035D01*
X027247Y004005D01*
X027239Y003974D01*
X027234Y003942D01*
X026412Y003942D02*
X026412Y004642D01*
X026122Y004202D02*
X023922Y004202D01*
X023890Y004203D01*
X023858Y004200D01*
X023826Y004194D01*
X023796Y004185D01*
X023767Y004172D01*
X023739Y004155D01*
X023713Y004136D01*
X023690Y004114D01*
X023669Y004090D01*
X023651Y004063D01*
X023636Y004035D01*
X023625Y004005D01*
X023617Y003974D01*
X023612Y003942D01*
X023612Y004592D01*
X022794Y004642D02*
X022794Y003942D01*
X022794Y002592D01*
X022792Y002558D01*
X022786Y002525D01*
X022777Y002493D01*
X022764Y002462D01*
X022748Y002432D01*
X022729Y002405D01*
X022706Y002380D01*
X022681Y002357D01*
X022654Y002338D01*
X022624Y002322D01*
X022593Y002309D01*
X022561Y002300D01*
X022528Y002294D01*
X022494Y002292D01*
X020294Y002292D01*
X020260Y002294D01*
X020227Y002300D01*
X020195Y002309D01*
X020164Y002322D01*
X020134Y002338D01*
X020107Y002357D01*
X020082Y002380D01*
X020059Y002405D01*
X020040Y002432D01*
X020024Y002462D01*
X020011Y002493D01*
X020002Y002525D01*
X019996Y002558D01*
X019994Y002592D01*
X019994Y003942D01*
X019994Y004592D01*
X020304Y004202D02*
X022504Y004202D01*
X022535Y004202D01*
X022566Y004198D01*
X022596Y004191D01*
X022625Y004181D01*
X022652Y004167D01*
X022678Y004151D01*
X022703Y004132D01*
X022724Y004110D01*
X022744Y004086D01*
X022760Y004060D01*
X022773Y004032D01*
X022783Y004003D01*
X022790Y003973D01*
X022794Y003942D01*
X023612Y003942D02*
X023612Y002592D01*
X023614Y002558D01*
X023620Y002525D01*
X023629Y002493D01*
X023642Y002462D01*
X023658Y002432D01*
X023677Y002405D01*
X023700Y002380D01*
X023725Y002357D01*
X023752Y002338D01*
X023782Y002322D01*
X023813Y002309D01*
X023845Y002300D01*
X023878Y002294D01*
X023912Y002292D01*
X026112Y002292D01*
X026146Y002294D01*
X026179Y002300D01*
X026211Y002309D01*
X026242Y002322D01*
X026272Y002338D01*
X026299Y002357D01*
X026324Y002380D01*
X026347Y002405D01*
X026366Y002432D01*
X026382Y002462D01*
X026395Y002493D01*
X026404Y002525D01*
X026410Y002558D01*
X026412Y002592D01*
X026412Y003942D01*
X026408Y003973D01*
X026401Y004003D01*
X026391Y004032D01*
X026378Y004060D01*
X026362Y004086D01*
X026342Y004110D01*
X026321Y004132D01*
X026296Y004151D01*
X026270Y004167D01*
X026243Y004181D01*
X026214Y004191D01*
X026184Y004198D01*
X026153Y004202D01*
X026122Y004202D01*
X029744Y004202D02*
X029775Y004202D01*
X029806Y004198D01*
X029836Y004191D01*
X029865Y004181D01*
X029892Y004167D01*
X029918Y004151D01*
X029943Y004132D01*
X029964Y004110D01*
X029984Y004086D01*
X030000Y004060D01*
X030013Y004032D01*
X030023Y004003D01*
X030030Y003973D01*
X030034Y003942D01*
X020304Y004202D02*
X020272Y004203D01*
X020240Y004200D01*
X020208Y004194D01*
X020178Y004185D01*
X020149Y004172D01*
X020121Y004155D01*
X020095Y004136D01*
X020072Y004114D01*
X020051Y004090D01*
X020033Y004063D01*
X020018Y004035D01*
X020007Y004005D01*
X019999Y003974D01*
X019994Y003942D01*
X019152Y003942D02*
X019152Y004642D01*
X018862Y004202D02*
X016662Y004202D01*
X016630Y004203D01*
X016598Y004200D01*
X016566Y004194D01*
X016536Y004185D01*
X016507Y004172D01*
X016479Y004155D01*
X016453Y004136D01*
X016430Y004114D01*
X016409Y004090D01*
X016391Y004063D01*
X016376Y004035D01*
X016365Y004005D01*
X016357Y003974D01*
X016352Y003942D01*
X016352Y004592D01*
X016352Y003942D02*
X016352Y002592D01*
X016354Y002558D01*
X016360Y002525D01*
X016369Y002493D01*
X016382Y002462D01*
X016398Y002432D01*
X016417Y002405D01*
X016440Y002380D01*
X016465Y002357D01*
X016492Y002338D01*
X016522Y002322D01*
X016553Y002309D01*
X016585Y002300D01*
X016618Y002294D01*
X016652Y002292D01*
X018852Y002292D01*
X018886Y002294D01*
X018919Y002300D01*
X018951Y002309D01*
X018982Y002322D01*
X019012Y002338D01*
X019039Y002357D01*
X019064Y002380D01*
X019087Y002405D01*
X019106Y002432D01*
X019122Y002462D01*
X019135Y002493D01*
X019144Y002525D01*
X019150Y002558D01*
X019152Y002592D01*
X019152Y003942D01*
X019148Y003973D01*
X019141Y004003D01*
X019131Y004032D01*
X019118Y004060D01*
X019102Y004086D01*
X019082Y004110D01*
X019061Y004132D01*
X019036Y004151D01*
X019010Y004167D01*
X018983Y004181D01*
X018954Y004191D01*
X018924Y004198D01*
X018893Y004202D01*
X018862Y004202D01*
X019148Y012696D02*
X019148Y013346D01*
X019148Y014696D01*
X019146Y014730D01*
X019140Y014763D01*
X019131Y014795D01*
X019118Y014826D01*
X019102Y014856D01*
X019083Y014883D01*
X019060Y014908D01*
X019035Y014931D01*
X019008Y014950D01*
X018978Y014966D01*
X018947Y014979D01*
X018915Y014988D01*
X018882Y014994D01*
X018848Y014996D01*
X016648Y014996D01*
X016614Y014994D01*
X016581Y014988D01*
X016549Y014979D01*
X016518Y014966D01*
X016488Y014950D01*
X016461Y014931D01*
X016436Y014908D01*
X016413Y014883D01*
X016394Y014856D01*
X016378Y014826D01*
X016365Y014795D01*
X016356Y014763D01*
X016350Y014730D01*
X016348Y014696D01*
X016348Y013346D01*
X016348Y012646D01*
X016638Y013086D02*
X018838Y013086D01*
X018870Y013085D01*
X018902Y013088D01*
X018934Y013094D01*
X018964Y013103D01*
X018993Y013116D01*
X019021Y013133D01*
X019047Y013152D01*
X019070Y013174D01*
X019091Y013198D01*
X019109Y013225D01*
X019124Y013253D01*
X019135Y013283D01*
X019143Y013314D01*
X019148Y013346D01*
X019994Y013342D02*
X019994Y012642D01*
X020284Y013082D02*
X022484Y013082D01*
X022516Y013081D01*
X022548Y013084D01*
X022580Y013090D01*
X022610Y013099D01*
X022639Y013112D01*
X022667Y013129D01*
X022693Y013148D01*
X022716Y013170D01*
X022737Y013194D01*
X022755Y013221D01*
X022770Y013249D01*
X022781Y013279D01*
X022789Y013310D01*
X022794Y013342D01*
X022794Y012692D01*
X023612Y012642D02*
X023612Y013342D01*
X023612Y014692D01*
X023614Y014726D01*
X023620Y014759D01*
X023629Y014791D01*
X023642Y014822D01*
X023658Y014852D01*
X023677Y014879D01*
X023700Y014904D01*
X023725Y014927D01*
X023752Y014946D01*
X023782Y014962D01*
X023813Y014975D01*
X023845Y014984D01*
X023878Y014990D01*
X023912Y014992D01*
X026112Y014992D01*
X026146Y014990D01*
X026179Y014984D01*
X026211Y014975D01*
X026242Y014962D01*
X026272Y014946D01*
X026299Y014927D01*
X026324Y014904D01*
X026347Y014879D01*
X026366Y014852D01*
X026382Y014822D01*
X026395Y014791D01*
X026404Y014759D01*
X026410Y014726D01*
X026412Y014692D01*
X026412Y013342D01*
X026412Y012692D01*
X026102Y013082D02*
X023902Y013082D01*
X023871Y013082D01*
X023840Y013086D01*
X023810Y013093D01*
X023781Y013103D01*
X023754Y013117D01*
X023728Y013133D01*
X023703Y013152D01*
X023682Y013174D01*
X023662Y013198D01*
X023646Y013224D01*
X023633Y013252D01*
X023623Y013281D01*
X023616Y013311D01*
X023612Y013342D01*
X022794Y013342D02*
X022794Y014692D01*
X022792Y014726D01*
X022786Y014759D01*
X022777Y014791D01*
X022764Y014822D01*
X022748Y014852D01*
X022729Y014879D01*
X022706Y014904D01*
X022681Y014927D01*
X022654Y014946D01*
X022624Y014962D01*
X022593Y014975D01*
X022561Y014984D01*
X022528Y014990D01*
X022494Y014992D01*
X020294Y014992D01*
X020260Y014990D01*
X020227Y014984D01*
X020195Y014975D01*
X020164Y014962D01*
X020134Y014946D01*
X020107Y014927D01*
X020082Y014904D01*
X020059Y014879D01*
X020040Y014852D01*
X020024Y014822D01*
X020011Y014791D01*
X020002Y014759D01*
X019996Y014726D01*
X019994Y014692D01*
X019994Y013342D01*
X019998Y013311D01*
X020005Y013281D01*
X020015Y013252D01*
X020028Y013224D01*
X020044Y013198D01*
X020064Y013174D01*
X020085Y013152D01*
X020110Y013133D01*
X020136Y013117D01*
X020163Y013103D01*
X020192Y013093D01*
X020222Y013086D01*
X020253Y013082D01*
X020284Y013082D01*
X016638Y013086D02*
X016607Y013086D01*
X016576Y013090D01*
X016546Y013097D01*
X016517Y013107D01*
X016490Y013121D01*
X016464Y013137D01*
X016439Y013156D01*
X016418Y013178D01*
X016398Y013202D01*
X016382Y013228D01*
X016369Y013256D01*
X016359Y013285D01*
X016352Y013315D01*
X016348Y013346D01*
X026102Y013082D02*
X026134Y013081D01*
X026166Y013084D01*
X026198Y013090D01*
X026228Y013099D01*
X026257Y013112D01*
X026285Y013129D01*
X026311Y013148D01*
X026334Y013170D01*
X026355Y013194D01*
X026373Y013221D01*
X026388Y013249D01*
X026399Y013279D01*
X026407Y013310D01*
X026412Y013342D01*
X027234Y013342D02*
X027234Y012642D01*
X027524Y013082D02*
X029724Y013082D01*
X029756Y013081D01*
X029788Y013084D01*
X029820Y013090D01*
X029850Y013099D01*
X029879Y013112D01*
X029907Y013129D01*
X029933Y013148D01*
X029956Y013170D01*
X029977Y013194D01*
X029995Y013221D01*
X030010Y013249D01*
X030021Y013279D01*
X030029Y013310D01*
X030034Y013342D01*
X030034Y012692D01*
X030034Y013342D02*
X030034Y014692D01*
X030032Y014726D01*
X030026Y014759D01*
X030017Y014791D01*
X030004Y014822D01*
X029988Y014852D01*
X029969Y014879D01*
X029946Y014904D01*
X029921Y014927D01*
X029894Y014946D01*
X029864Y014962D01*
X029833Y014975D01*
X029801Y014984D01*
X029768Y014990D01*
X029734Y014992D01*
X027534Y014992D01*
X027500Y014990D01*
X027467Y014984D01*
X027435Y014975D01*
X027404Y014962D01*
X027374Y014946D01*
X027347Y014927D01*
X027322Y014904D01*
X027299Y014879D01*
X027280Y014852D01*
X027264Y014822D01*
X027251Y014791D01*
X027242Y014759D01*
X027236Y014726D01*
X027234Y014692D01*
X027234Y013342D01*
X027238Y013311D01*
X027245Y013281D01*
X027255Y013252D01*
X027268Y013224D01*
X027284Y013198D01*
X027304Y013174D01*
X027325Y013152D01*
X027350Y013133D01*
X027376Y013117D01*
X027403Y013103D01*
X027432Y013093D01*
X027462Y013086D01*
X027493Y013082D01*
X027524Y013082D01*
M02*
